<svg width="16" height="16" viewBox="0 0 16 16" fill="none" xmlns="http://www.w3.org/2000/svg">
<path fill-rule="evenodd" clip-rule="evenodd" d="M8 16C12.4183 16 16 12.4183 16 8C16 3.58172 12.4183 0 8 0C3.58172 0 0 3.58172 0 8C0 12.4183 3.58172 16 8 16Z" fill="#2E5BFF"/>
<path fill-rule="evenodd" clip-rule="evenodd" d="M11.8772 6.1537L7.0913 10.9675C6.78307 11.2775 6.28406 11.2775 5.97661 10.9675L3.97741 8.95744C3.66996 8.64741 3.66996 8.1455 3.97741 7.83547C4.28565 7.52623 4.78466 7.52623 5.09211 7.83547L6.53396 9.28571L10.7625 5.03252C11.07 4.72249 11.569 4.72249 11.8772 5.03252C12.1855 5.34176 12.1855 5.84367 11.8772 6.1537" fill="white"/>
</svg>
