<svg width="16" height="16" viewBox="0 0 16 16" fill="none" xmlns="http://www.w3.org/2000/svg">
<path d="M12.6667 1.33334H3.33334C2.80291 1.33334 2.2942 1.54406 1.91913 1.91913C1.54406 2.2942 1.33334 2.80291 1.33334 3.33334V4.11334C1.33325 4.38864 1.38999 4.66099 1.50001 4.91334V4.95334C1.5942 5.16732 1.72761 5.36178 1.89334 5.52668L6.00001 9.60668V14C5.99978 14.1133 6.02843 14.2248 6.08326 14.3239C6.13808 14.4231 6.21727 14.5066 6.31334 14.5667C6.41944 14.6324 6.54186 14.6671 6.66668 14.6667C6.77104 14.6661 6.8738 14.6409 6.96668 14.5933L9.63334 13.26C9.74329 13.2046 9.83574 13.1198 9.90046 13.0151C9.96518 12.9104 9.99964 12.7898 10 12.6667V9.60668L14.08 5.52668C14.2457 5.36178 14.3792 5.16732 14.4733 4.95334V4.91334C14.5926 4.66296 14.6584 4.39053 14.6667 4.11334V3.33334C14.6667 2.80291 14.456 2.2942 14.0809 1.91913C13.7058 1.54406 13.1971 1.33334 12.6667 1.33334ZM8.86001 8.86001C8.79822 8.9223 8.74934 8.99618 8.71616 9.07741C8.68299 9.15863 8.66617 9.24561 8.66668 9.33334V12.2533L7.33334 12.92V9.33334C7.33385 9.24561 7.31703 9.15863 7.28386 9.07741C7.25068 8.99618 7.2018 8.9223 7.14001 8.86001L3.60668 5.33334H12.3933L8.86001 8.86001ZM13.3333 4.00001H2.66668V3.33334C2.66668 3.15653 2.73692 2.98696 2.86194 2.86194C2.98696 2.73691 3.15653 2.66668 3.33334 2.66668H12.6667C12.8435 2.66668 13.0131 2.73691 13.1381 2.86194C13.2631 2.98696 13.3333 3.15653 13.3333 3.33334V4.00001Z" fill="#3365FC"/>
</svg>
