<svg width="820" height="614" viewBox="0 0 820 614" fill="none" xmlns="http://www.w3.org/2000/svg">
<g clip-path="url(#clip0_23_4544)">
<path d="M644.118 491.982L654.528 488.733C655.365 488.177 656.294 487.805 657.131 487.063L640.958 492.261C642.073 492.167 643.095 492.167 644.118 491.982ZM636.775 491.982L660.29 484.371C660.755 483.999 661.033 483.535 661.498 483.164L635.195 491.518C635.752 491.796 636.31 491.889 636.775 491.982ZM632.686 490.961L663.451 481.122C663.823 480.844 663.915 480.473 664.287 480.101L631.849 490.404C632.128 490.775 632.406 490.775 632.686 490.961ZM630.268 489.383L665.588 478.059C665.774 477.781 665.96 477.409 666.146 477.13L629.711 488.826C629.804 489.104 630.083 489.29 630.268 489.383ZM628.503 487.619L666.983 475.366C667.169 475.087 667.169 474.809 667.355 474.438L628.039 487.061C628.317 487.248 628.41 487.526 628.503 487.619ZM627.387 485.763L668.284 472.768C668.284 472.49 668.47 472.211 668.47 471.84L627.015 485.112C627.109 485.299 627.202 485.577 627.387 485.763ZM626.365 483.72L668.842 470.076C668.842 469.797 668.934 469.519 669.027 469.148L626.086 482.792C626.179 483.256 626.272 483.442 626.365 483.72ZM625.622 481.679L669.399 467.663C669.399 467.385 669.492 467.106 669.492 466.828L625.342 481.029C625.435 481.122 625.529 481.4 625.622 481.679ZM625.249 479.173C625.342 479.265 625.157 479.358 625.249 479.451L669.771 465.25C669.771 464.971 669.864 464.693 669.864 464.414L625.528 478.522C625.435 478.708 625.342 478.894 625.249 479.173ZM627.573 476.017C627.48 476.109 627.387 476.296 627.201 476.296L669.863 462.651C669.863 462.372 669.77 462.187 669.863 461.909L628.316 475.275C627.945 475.552 627.759 475.831 627.573 476.017ZM629.618 473.325L669.492 460.609C669.492 460.33 669.399 460.145 669.306 459.867L629.99 472.49C629.99 472.768 629.804 472.954 629.618 473.325ZM630.92 470.54L669.307 458.288C669.214 458.01 669.215 457.824 669.122 457.546L631.292 469.705C631.013 470.076 631.013 470.355 630.92 470.54ZM631.57 468.034L668.749 456.246C668.656 455.967 668.563 455.874 668.563 455.503L631.849 467.292C631.663 467.571 631.57 467.756 631.57 468.034ZM631.756 465.621L667.912 454.112C667.819 453.834 667.726 453.74 667.633 453.462L631.663 464.879C631.756 465.157 631.756 465.436 631.756 465.621ZM631.57 463.301L666.705 452.069C666.612 451.791 666.519 451.698 666.425 451.42L631.477 462.558C631.57 462.837 631.57 463.208 631.57 463.301ZM631.105 461.166L665.403 450.121C665.31 449.843 665.031 449.656 664.938 449.564L630.733 460.516C630.92 460.794 631.013 460.98 631.105 461.166ZM663.265 447.8L629.897 458.381C629.99 458.659 630.083 458.752 630.176 459.03L663.823 448.263C663.823 448.171 663.544 447.986 663.265 447.8ZM661.313 446.129L628.781 456.525C628.874 456.803 629.153 456.989 629.246 457.081L662.056 446.593C661.778 446.593 661.499 446.315 661.313 446.129ZM658.711 444.644L627.667 454.482C627.759 454.761 627.852 454.854 627.946 455.132L659.641 444.922C659.269 444.922 659.082 444.737 658.711 444.644ZM655.458 443.437C655.365 443.53 655.272 443.344 655.179 443.437L627.76 452.162C627.667 452.347 627.667 452.719 627.667 452.998L656.667 443.716C656.201 443.716 655.829 443.53 655.458 443.437ZM648.487 443.159L630.733 448.821C630.176 449.285 629.525 449.656 628.967 450.12L651.46 442.973C650.532 443.066 649.416 443.066 648.487 443.159Z" fill="#E6E6E6"/>
<path d="M696.725 334.561C698.026 338.459 696.54 342.636 694.587 346.256C689.289 356.188 680.739 364.356 670.514 369.09C664.845 371.781 658.71 373.359 652.855 375.772C635.846 382.827 621.996 396.935 615.397 414.107C617.349 402.226 611.121 390.438 603.5 381.063C595.971 371.689 586.862 363.242 581.472 352.475C576.824 343.193 576.731 329.456 586.119 325C592.998 321.751 601.642 325.371 608.706 322.401C611.216 321.287 613.446 319.059 613.353 316.368C612.981 309.499 599.41 309.963 599.039 303.095C598.667 295.205 619.488 297.526 616.792 290.007C615.677 286.851 611.216 285.923 609.728 282.953C608.148 279.983 608.241 275.806 610.937 273.671C614.375 270.887 619.581 273.114 623.949 272.093C628.875 270.979 632.036 265.967 633.058 260.955C634.081 255.943 633.523 250.838 634.266 245.826C636.032 233.481 646.164 222.807 658.339 220.208C670.515 217.609 684.085 223.364 690.685 233.945C693.38 238.307 694.867 244.155 691.985 248.331C689.476 251.858 684.085 254.179 684.549 258.449C685.107 264.297 695.982 264.854 696.168 270.701C696.353 277.57 682.225 277.57 682.597 284.438C682.783 287.502 686.036 289.265 687.988 291.678C691.706 296.133 690.219 303.837 685.107 306.621C683.062 307.735 680.646 308.199 679.066 309.777C674.976 313.768 678.973 320.823 683.806 323.793C688.64 326.764 694.959 329.084 696.725 334.561Z" fill="url(#paint0_linear_23_4544)"/>
<path d="M661.034 335.025C663.915 333.447 666.983 331.961 669.306 329.549C674.047 324.35 673.768 316.554 674.14 309.499C674.512 302.445 677.021 294.184 683.806 292.328C689.476 290.75 696.633 294.184 700.815 290.1C702.396 288.615 703.046 286.387 704.161 284.531C708.995 276.456 721.728 277.105 728.792 283.325C735.763 289.543 738.459 299.197 740.782 308.293C741.619 311.634 741.712 316.276 738.459 317.203C735.299 318.039 732.138 314.14 729.164 315.347C726.748 316.276 726.562 319.71 727.491 322.216C728.328 324.629 729.815 327.136 729.257 329.735C728.142 334.561 721.357 334.839 716.524 333.54C711.69 332.241 705.463 330.941 702.675 335.118C705.743 344.864 708.344 356.745 701.467 364.449C693.567 373.267 678.974 372.339 667.169 373.453C645.234 375.495 629.712 392.202 617.349 410.488C616.605 379.856 634.173 349.598 661.034 335.025Z" fill="url(#paint1_linear_23_4544)"/>
<path d="M633.522 396.564C633.429 396.564 633.429 396.564 633.336 396.564C633.057 396.471 632.964 396.192 633.057 396.007C644.211 361.942 661.963 338.274 694.402 314.419C700.443 309.964 718.661 302.445 726.562 301.796C726.747 301.796 727.026 301.981 727.026 302.26C727.026 302.539 726.841 302.724 726.562 302.724C719.033 303.374 700.723 310.892 694.96 315.162C662.614 338.924 644.954 362.407 633.894 396.286C633.894 396.378 633.708 396.564 633.522 396.564Z" fill="white"/>
<path d="M650.717 296.69L646.999 286.48C645.698 286.387 644.304 286.573 643.003 287.037L646.999 297.989C647.185 298.639 646.907 299.288 646.256 299.475C645.606 299.66 644.955 299.382 644.769 298.732L640.772 287.965C639.564 288.707 638.542 289.729 637.705 290.842L641.051 299.939C641.236 300.588 640.958 301.238 640.307 301.424C639.657 301.61 639.006 301.331 638.82 300.682L636.217 293.535C634.73 297.248 634.637 301.982 636.31 306.622C636.31 306.715 636.403 306.808 636.403 306.901C635.566 307.365 634.637 307.922 633.893 308.572C631.57 310.243 628.595 313.12 627.572 317.204L628.688 317.483C629.617 313.77 632.406 311.078 634.543 309.593C635.287 309.036 636.031 308.572 636.867 308.108C638.633 312.006 641.514 315.162 644.674 316.833L642.164 310.057C641.979 309.408 642.257 308.758 642.907 308.572C643.558 308.386 644.208 308.665 644.395 309.314L647.648 318.039C649.043 318.411 650.436 318.503 651.831 318.225L648.113 308.014C647.927 307.365 648.206 306.715 648.856 306.529C649.507 306.344 650.157 306.622 650.344 307.271L654.154 317.574C655.363 317.017 656.478 316.181 657.408 315.254L653.969 305.972C653.783 305.322 654.062 304.673 654.712 304.487C655.362 304.301 656.013 304.579 656.199 305.229L659.173 313.212C660.103 311.819 660.939 310.334 661.683 308.756L659.825 303.744C659.639 303.095 659.917 302.445 660.568 302.259C661.218 302.074 661.869 302.352 662.055 303.001L663.078 305.693C664.936 301.238 666.145 296.875 667.726 295.483C665.123 294.926 661.498 292.513 657.501 290.285L658.802 293.719C658.988 294.368 658.709 295.018 658.059 295.204C657.408 295.389 656.758 295.111 656.571 294.462L654.434 288.614C652.853 287.872 651.273 287.315 649.693 286.943L652.946 295.947C653.132 296.597 652.853 297.246 652.203 297.432C651.647 297.619 650.996 297.34 650.717 296.69Z" fill="white"/>
<path d="M466.869 410.393H363.14V525.582H466.869V410.393Z" fill="#D6D7D8"/>
<path d="M531.094 521.87H298.912V530.78H531.094V521.87Z" fill="#428DFC"/>
<path d="M642.816 190.134H187.19V484.742H642.816V190.134Z" fill="url(#paint2_linear_23_4544)"/>
<path d="M634.823 197.467H195.184V440.096H634.823V197.467Z" fill="white"/>
<path d="M392.685 462.872L398.665 468.844L404.646 462.872L398.665 456.9L392.685 462.872Z" fill="#A1C3FC"/>
<path d="M409 462.859L414.98 468.831L420.96 462.859L414.98 456.887L409 462.859Z" fill="white"/>
<path d="M425.314 462.885L431.294 468.857L437.275 462.885L431.294 456.912L425.314 462.885Z" fill="#1D72D8"/>
<path d="M633.614 155.698C633.614 155.884 633.614 156.07 633.614 156.255C633.614 163.959 639.841 170.178 647.557 170.178C655.272 170.178 661.499 163.96 661.499 156.255C661.499 156.07 661.499 155.884 661.499 155.698H633.614Z" fill="#D3E3FE"/>
<path d="M683.527 121.819C683.527 122.098 683.527 122.468 683.527 122.747C683.527 135.463 693.844 145.766 706.578 145.766C719.311 145.766 729.628 135.463 729.628 122.747C729.628 122.468 729.628 122.098 729.628 121.819C729.629 121.819 683.527 121.819 683.527 121.819Z" fill="#A1C3FC"/>
<path d="M99.0767 97.686C99.0767 98.2429 99.0767 98.7071 99.0767 99.264C99.0767 120.705 116.551 138.156 138.022 138.156C159.493 138.156 176.967 120.706 176.967 99.264C176.967 98.7071 176.967 98.2429 176.967 97.686C176.966 97.686 99.0767 97.686 99.0767 97.686Z" fill="#F4F4F4"/>
<path d="M139.88 97.686C139.88 98.0576 139.88 98.4283 139.88 98.7998C139.88 114.394 152.521 127.017 168.136 127.017C183.752 127.017 196.392 114.394 196.392 98.7998C196.392 98.4283 196.392 98.0576 196.392 97.686H139.88Z" fill="#E7EFFE"/>
<path d="M123.521 469.334C123.336 473.418 125.845 477.13 128.727 480.101C136.534 488.362 147.038 494.024 158.191 495.88C164.418 496.901 170.831 496.901 177.152 497.644C195.556 499.964 212.751 509.989 223.812 524.84C218.7 513.794 221.674 500.707 226.507 489.568C231.341 478.43 237.94 467.849 240.263 455.968C242.308 445.757 238.683 432.298 228.366 430.535C220.744 429.236 213.308 435.083 205.687 433.969C202.991 433.597 200.11 432.02 199.552 429.328C198.065 422.552 211.45 419.396 209.869 412.62C208.104 404.824 188.492 412.62 189.142 404.73C189.422 401.389 193.418 399.346 194.161 396.005C194.905 392.664 193.696 388.673 190.536 387.373C186.446 385.609 181.985 389.136 177.523 389.322C172.412 389.601 168.043 385.517 165.719 380.969C163.395 376.421 162.558 371.223 160.513 366.582C155.495 355.073 142.854 347.369 130.305 348.111C117.757 348.854 106.139 358.043 102.514 370.109C101.027 375.028 101.12 381.154 105.117 384.496C108.463 387.28 114.319 388.022 115.062 392.292C116.084 398.14 105.675 401.574 107.068 407.329C108.648 414.105 122.497 410.299 123.892 417.075C124.542 420.139 121.847 422.737 120.639 425.522C118.222 430.813 121.754 437.867 127.423 439.259C129.654 439.816 132.164 439.537 134.208 440.652C139.227 443.436 137.276 451.326 133.371 455.503C129.284 459.773 123.893 463.579 123.521 469.334Z" fill="url(#paint3_linear_23_4544)"/>
<path d="M158.469 460.33C155.216 459.588 151.87 458.938 148.989 457.174C142.948 453.369 141.182 445.665 138.951 438.982C136.721 432.299 132.073 424.873 125.009 424.873C119.06 424.873 113.019 430.164 107.907 427.286C105.955 426.173 104.747 424.223 103.166 422.739C96.3818 416.241 84.1124 420.232 79.0006 428.122C73.8889 436.012 73.8889 446.129 73.9817 455.597C74.0745 459.031 75.1898 463.58 78.6294 463.58C81.8826 463.58 83.9276 458.938 87.1808 459.31C89.7835 459.588 90.8988 462.93 90.7123 465.528C90.5267 468.128 89.7826 470.912 90.9916 473.232C93.315 477.687 100.101 476.109 104.376 473.51C108.652 470.911 114.414 468.034 118.225 471.375C117.853 481.678 118.504 493.93 127.241 499.5C137.279 505.904 151.222 501.17 162.933 499.128C184.776 495.23 204.387 507.389 221.211 521.869C213.495 491.982 188.398 467.292 158.469 460.33Z" fill="url(#paint4_linear_23_4544)"/>
<path d="M223.533 526.232C216.097 506.833 210.148 486.877 205.594 466.642" stroke="#428DFC" stroke-width="3.32292" stroke-miterlimit="10" stroke-linecap="round"/>
<path d="M215.742 462.228C215.249 460.079 210.225 459.396 204.522 460.703C198.818 462.009 194.594 464.809 195.087 466.957C195.581 469.106 200.604 469.789 206.308 468.482C212.012 467.176 216.236 464.376 215.742 462.228Z" fill="#23286B"/>
<path d="M205.036 464.228C202.526 452.719 200.482 441.21 198.902 429.514" stroke="#428DFC" stroke-width="3.32292" stroke-miterlimit="10" stroke-linecap="round"/>
<path d="M210.602 422.788C209.771 420.309 203.691 420.106 197.021 422.335C190.352 424.564 185.619 428.381 186.45 430.861C187.281 433.34 193.361 433.543 200.03 431.314C206.7 429.084 211.433 425.267 210.602 422.788Z" fill="#23286B"/>
<path d="M198.437 426.451C197.229 416.798 196.299 407.145 195.649 397.492" stroke="#428DFC" stroke-width="3.32292" stroke-miterlimit="10" stroke-linecap="round"/>
<path d="M209.017 394.019C208.989 391.405 203.266 389.347 196.234 389.421C189.202 389.496 183.525 391.675 183.552 394.289C183.58 396.902 189.303 398.961 196.335 398.887C203.366 398.812 209.044 396.633 209.017 394.019Z" fill="#23286B"/>
<path d="M195.462 393.408C195.09 386.075 194.905 378.65 194.812 371.224" stroke="#428DFC" stroke-width="3.32292" stroke-miterlimit="10" stroke-linecap="round"/>
<path d="M211.991 367.241C211.954 363.705 204.267 360.919 194.823 361.019C185.379 361.119 177.753 364.067 177.791 367.603C177.828 371.14 185.515 373.925 194.959 373.825C204.403 373.725 212.029 370.778 211.991 367.241Z" fill="#23286B"/>
<path d="M194.812 366.212C194.905 361.292 194.998 356.373 195.184 351.454" stroke="#428DFC" stroke-width="3.32292" stroke-miterlimit="10" stroke-linecap="round"/>
<path d="M184.309 498.758L188.027 488.547C189.328 488.455 190.723 488.64 192.023 489.104L188.027 500.057C187.841 500.706 188.12 501.356 188.77 501.542C189.421 501.728 190.071 501.449 190.258 500.8L194.254 490.033C195.462 490.775 196.485 491.796 197.322 492.91L193.976 502.006C193.79 502.656 194.069 503.305 194.719 503.492C195.369 503.678 196.02 503.399 196.206 502.749L198.809 495.602C200.296 499.315 200.389 504.049 198.716 508.69C198.716 508.782 198.623 508.875 198.623 508.969C199.46 509.433 200.389 509.99 201.133 510.639C203.457 512.31 206.432 515.187 207.454 519.272L206.339 519.55C205.409 515.838 202.621 513.146 200.483 511.66C199.74 511.104 198.995 510.639 198.159 510.175C196.394 514.073 193.512 517.229 190.352 518.9L192.862 512.125C193.048 511.475 192.769 510.826 192.119 510.639C191.468 510.454 190.818 510.732 190.631 511.382L187.378 520.107C185.984 520.478 184.59 520.571 183.195 520.292L186.913 510.082C187.099 509.432 186.821 508.782 186.17 508.596C185.52 508.41 184.869 508.689 184.683 509.338L180.872 519.641C179.664 519.085 178.548 518.249 177.619 517.321L181.058 508.039C181.243 507.39 180.965 506.74 180.314 506.554C179.664 506.369 179.013 506.647 178.827 507.296L175.853 515.279C174.923 513.886 174.087 512.402 173.343 510.824L175.202 505.812C175.387 505.162 175.109 504.513 174.458 504.326C173.808 504.14 173.157 504.419 172.971 505.069L171.949 507.76C170.09 503.305 168.881 498.943 167.301 497.55C169.903 496.993 173.528 494.58 177.525 492.352L176.224 495.786C176.039 496.436 176.317 497.085 176.967 497.271C177.618 497.458 178.268 497.179 178.455 496.529L180.593 490.681C182.173 489.939 183.753 489.382 185.333 489.011L182.08 498.014C181.894 498.664 182.173 499.314 182.823 499.5C183.379 499.686 184.03 499.407 184.309 498.758Z" fill="white"/>
<path d="M164.512 202.107L157.541 201.272C156.89 201.364 156.24 201.364 155.588 201.551L166.463 202.757C165.72 202.572 165.162 202.293 164.512 202.107ZM168.787 204.057L152.986 202.294C152.614 202.386 152.335 202.572 151.963 202.665L169.623 204.707C169.344 204.428 169.066 204.242 168.787 204.057ZM170.925 205.728L150.29 203.407C150.011 203.5 149.825 203.686 149.547 203.779L171.297 206.285C171.204 206.006 171.017 205.913 170.925 205.728ZM171.947 207.306L148.245 204.614C148.06 204.707 147.873 204.893 147.688 204.985L172.133 207.77C172.134 207.584 172.04 207.398 171.947 207.306ZM172.505 208.79L146.666 205.82C146.48 205.913 146.387 206.099 146.201 206.285L172.598 209.254C172.505 209.069 172.505 208.884 172.505 208.79ZM172.691 210.183L145.272 207.027C145.179 207.212 144.993 207.306 144.9 207.491L172.691 210.647C172.691 210.554 172.691 210.368 172.691 210.183ZM172.691 211.668L144.157 208.419C144.064 208.605 143.971 208.698 143.785 208.884L172.598 212.225C172.691 211.946 172.691 211.853 172.691 211.668ZM172.598 213.06L143.226 209.719C143.133 209.904 143.041 209.997 142.947 210.183L172.597 213.524C172.598 213.432 172.598 213.246 172.598 213.06ZM172.134 214.638C172.134 214.545 172.226 214.545 172.226 214.453L142.39 211.019C142.297 211.204 142.205 211.297 142.111 211.483L171.854 214.917C171.947 214.824 172.04 214.731 172.134 214.638ZM169.996 215.844C170.089 215.844 170.181 215.752 170.275 215.752L141.647 212.503C141.554 212.688 141.554 212.782 141.461 212.967L169.345 216.123C169.624 216.031 169.809 215.938 169.996 215.844ZM168.043 216.866L141.275 213.802C141.182 213.988 141.182 214.081 141.182 214.266L167.579 217.236C167.671 217.144 167.858 217.052 168.043 216.866ZM166.556 218.166L140.81 215.196C140.81 215.381 140.717 215.475 140.717 215.66L166.092 218.537C166.37 218.444 166.463 218.258 166.556 218.166ZM165.534 219.465L140.624 216.588C140.624 216.773 140.624 216.866 140.531 217.052L165.162 219.836C165.348 219.744 165.441 219.65 165.534 219.465ZM164.79 220.857L140.531 218.073C140.531 218.258 140.531 218.352 140.531 218.537L164.604 221.322C164.605 221.135 164.697 220.95 164.79 220.857ZM164.233 222.249L140.624 219.557C140.624 219.743 140.624 219.836 140.624 220.022L164.047 222.713C164.14 222.528 164.233 222.342 164.233 222.249ZM163.953 223.642L140.903 221.043C140.903 221.228 140.996 221.414 140.996 221.507L163.953 224.106C163.953 223.92 163.953 223.734 163.953 223.642ZM141.553 222.992L163.953 225.591C163.953 225.406 163.953 225.312 163.953 225.127L141.367 222.528C141.368 222.621 141.46 222.806 141.553 222.992ZM142.297 224.477L164.14 226.983C164.14 226.798 164.047 226.612 164.047 226.519L142.019 224.012C142.111 224.106 142.205 224.291 142.297 224.477ZM143.413 226.055L164.233 228.468C164.233 228.282 164.233 228.189 164.233 228.003L142.948 225.59C143.133 225.684 143.226 225.869 143.413 226.055ZM144.993 227.633C145.086 227.633 145.086 227.725 145.179 227.725L163.582 229.86C163.675 229.768 163.768 229.581 163.861 229.396L144.435 227.169C144.621 227.261 144.806 227.447 144.993 227.633ZM148.989 229.582L160.887 230.975C161.352 230.882 161.816 230.79 162.281 230.696L147.224 228.933C147.781 229.118 148.432 229.396 148.989 229.582Z" fill="#B3C9EE"/>
<path d="M656.201 509.246L667.076 509.71C668.098 509.525 669.121 509.431 670.05 509.061L653.04 508.504C654.249 508.689 655.178 509.06 656.201 509.246ZM649.322 506.74L674.046 507.576C674.604 507.391 674.976 507.112 675.626 506.834L648.021 505.813C648.486 506.276 648.858 506.554 649.322 506.74ZM645.884 504.419L678.136 505.533C678.601 505.348 678.787 505.069 679.251 504.883L645.233 503.584C645.419 504.048 645.698 504.141 645.884 504.419ZM644.025 502.099L681.111 503.398C681.389 503.213 681.668 502.934 681.948 502.748L643.747 501.356C643.746 501.727 643.931 502.006 644.025 502.099ZM643.003 499.871L683.434 501.357C683.713 501.171 683.806 500.892 684.085 500.614L642.816 499.129C643.003 499.407 643.003 499.686 643.003 499.871ZM642.538 497.736L685.386 499.314C685.479 499.036 685.759 498.85 685.944 498.572L642.445 496.994C642.538 497.18 642.538 497.458 642.538 497.736ZM642.352 495.416L686.967 497.087C687.059 496.808 687.245 496.623 687.524 496.345L642.445 494.581C642.352 495.045 642.352 495.137 642.352 495.416ZM642.352 493.281L688.268 494.952C688.36 494.673 688.547 494.488 688.64 494.21L642.259 492.539C642.352 492.724 642.352 493.002 642.352 493.281ZM642.91 490.775C642.91 490.96 642.817 490.96 642.817 491.054L689.477 492.817C689.569 492.539 689.756 492.353 689.849 492.075L643.375 490.311C643.188 490.497 643.003 490.589 642.91 490.775ZM646.069 488.64C645.884 488.64 645.79 488.825 645.604 488.825L690.405 490.403C690.497 490.125 690.497 489.939 690.684 489.661L647.092 488.083C646.627 488.269 646.349 488.455 646.069 488.64ZM648.951 486.784L690.777 488.362C690.87 488.083 690.87 487.898 690.87 487.62L649.602 486.134C649.509 486.32 649.23 486.505 648.951 486.784ZM651.089 484.649L691.335 486.134C691.335 485.855 691.428 485.67 691.428 485.392L651.74 483.999C651.367 484.185 651.275 484.464 651.089 484.649ZM652.576 482.514L691.521 483.999C691.521 483.721 691.521 483.535 691.614 483.257L653.133 481.865C652.762 482.05 652.668 482.236 652.576 482.514ZM653.505 480.287L691.428 481.679C691.428 481.401 691.428 481.215 691.335 480.937L653.692 479.452C653.785 479.822 653.691 480.101 653.505 480.287ZM654.249 478.059L691.149 479.452C691.149 479.174 691.149 478.987 691.056 478.709L654.435 477.317C654.342 477.595 654.249 477.874 654.249 478.059ZM654.528 475.831L690.591 477.131C690.591 476.852 690.405 476.574 690.405 476.388L654.528 475.089C654.435 475.367 654.528 475.645 654.528 475.831ZM689.29 474.161L654.249 472.768C654.249 473.047 654.249 473.232 654.342 473.51L689.662 474.809C689.662 474.718 689.476 474.439 689.29 474.161ZM687.988 471.933L653.877 470.634C653.877 470.912 654.062 471.191 654.062 471.376L688.545 472.675C688.268 472.49 688.175 472.211 687.988 471.933ZM686.037 469.612L653.505 468.313C653.505 468.592 653.505 468.777 653.598 469.055L686.873 470.262C686.502 470.169 686.315 469.891 686.037 469.612ZM683.434 467.384C683.249 467.384 683.249 467.292 683.155 467.292L654.341 466.178C654.249 466.363 654.063 466.642 653.969 466.92L684.363 468.034C683.992 467.941 683.713 467.663 683.434 467.384ZM677.021 464.879L658.431 464.137C657.688 464.322 657.037 464.508 656.294 464.693L679.809 465.622C678.88 465.436 677.858 465.064 677.021 464.879Z" fill="#B3C9EE"/>
<path d="M467.372 268.598C482.504 273.83 494.491 283.617 501.802 295.318C518.078 279.063 533.167 254.427 543.343 225.033C564.092 165.095 526.532 97.7046 526.532 97.7046C526.532 97.7046 455.331 127.493 434.582 187.431C424.406 216.827 421.035 245.512 423.78 268.345C436.763 263.659 452.239 263.366 467.372 268.598Z" fill="url(#paint5_linear_23_4544)"/>
<path d="M511.573 186.584C515.583 187.971 519.062 190.197 521.883 192.996C520.701 182.934 513.918 173.927 503.682 170.388C489.437 165.464 473.9 172.994 468.978 187.209C465.442 197.422 468.35 208.306 475.551 215.452C475.088 211.51 475.484 207.407 476.869 203.405C481.79 189.19 497.329 181.66 511.573 186.584Z" fill="#EFEFEF"/>
<path d="M520.56 205.035C521.945 201.034 522.342 196.93 521.878 192.988C519.057 190.188 515.577 187.963 511.567 186.576C497.322 181.652 481.783 189.182 476.863 203.397C475.478 207.399 475.081 211.502 475.545 215.445C478.366 218.244 481.846 220.47 485.856 221.856C500.102 226.781 515.64 219.25 520.56 205.035Z" fill="white"/>
<path d="M530.776 228.6L497.452 292.235L522.951 327.356C540.098 288.302 541.992 255.684 530.776 228.6Z" fill="#FF4945"/>
<path d="M445.102 199.034L431.952 269.658L390.177 281.525C400.846 240.224 419.531 213.403 445.102 199.034Z" fill="#FF4945"/>
<path d="M525.176 105.299C524.929 105.349 524.668 105.336 524.413 105.248C523.656 104.986 523.254 104.16 523.515 103.405L539.001 58.6541C539.265 57.8983 540.093 57.4983 540.847 57.7589C541.604 58.0208 542.006 58.8463 541.745 59.6019L526.259 104.353C526.083 104.856 525.661 105.201 525.176 105.299Z" fill="#FF4945"/>
<path d="M477.579 383.207C477.535 383.216 477.489 383.219 477.441 383.214C477.175 383.191 476.978 382.958 477.002 382.692C478.862 360.983 479.363 341.169 478.626 318.449C478.618 318.184 478.827 317.962 479.094 317.952C479.36 317.944 479.584 318.153 479.593 318.419C480.332 341.178 479.829 361.026 477.965 382.774C477.946 382.993 477.786 383.166 477.579 383.207Z" fill="#5BABF2"/>
<path d="M394.236 354.443C394.116 354.467 393.985 354.446 393.874 354.373C393.65 354.226 393.588 353.927 393.734 353.704C405.72 335.445 417.6 319.524 432.253 302.085C432.424 301.878 432.731 301.853 432.936 302.025C433.141 302.196 433.167 302.501 432.995 302.706C418.368 320.116 406.509 336.008 394.544 354.235C394.47 354.346 394.358 354.418 394.236 354.443Z" fill="#5BABF2"/>
<path d="M468.218 395.098L474.172 404.666L483.756 398.734L477.802 389.166L468.218 395.098Z" fill="#FF4945"/>
<path d="M412.338 395.468L405.627 404.511L414.701 411.213L421.411 402.17L412.338 395.468Z" fill="#1B236D"/>
<path d="M395.471 324.163L399.528 330.683L406.06 326.641L402.002 320.12L395.471 324.163Z" fill="#5BABF2"/>
<path d="M420.63 390.411C420.548 390.428 420.461 390.424 420.377 390.395C420.125 390.307 419.99 390.032 420.078 389.78L442.164 325.95C442.252 325.698 442.528 325.566 442.779 325.651C443.032 325.74 443.166 326.014 443.079 326.266L420.993 390.096C420.932 390.264 420.791 390.379 420.63 390.411Z" fill="#5BABF2"/>
<path d="M455.577 371.923C455.521 371.935 455.463 371.937 455.405 371.927C455.14 371.885 454.961 371.637 455.003 371.373L457.664 354.685C457.706 354.422 457.955 354.24 458.219 354.285C458.483 354.327 458.662 354.575 458.621 354.839L455.959 371.527C455.925 371.73 455.769 371.885 455.577 371.923Z" fill="#5BABF2"/>
<path d="M501.148 227.564C495.546 228.695 489.715 228.301 484.285 226.422C476.174 223.617 469.64 217.827 465.885 210.121C462.131 202.415 461.605 193.714 464.406 185.62C468.099 174.946 477.29 166.922 488.391 164.68C493.993 163.549 499.824 163.943 505.254 165.821C521.997 171.612 530.914 189.915 525.134 206.622C521.439 217.299 512.249 225.322 501.148 227.564ZM490.32 174.15C482.557 175.717 476.133 181.325 473.551 188.785C471.595 194.44 471.963 200.521 474.586 205.906C477.21 211.291 481.776 215.337 487.444 217.297C491.24 218.611 495.313 218.887 499.221 218.098C506.984 216.53 513.409 210.922 515.991 203.462C520.03 191.787 513.798 178.997 502.099 174.951C498.3 173.637 494.228 173.36 490.32 174.15Z" fill="#FF4945"/>
<path d="M478.65 143.314C509.033 153.819 533.456 173.115 549.211 196.5C553.242 145.569 526.566 97.7045 526.566 97.7045C526.566 97.7045 493.372 111.597 465.708 139.487C470.027 140.556 474.346 141.828 478.65 143.314Z" fill="#5BABF2"/>
<path d="M548.041 154.405C541.99 120.53 527.612 94.7217 527.612 94.7217C527.612 94.7217 500.349 106.133 474.645 129.031L548.041 154.405Z" fill="url(#paint6_linear_23_4544)"/>
<path d="M275.886 266.406C231.707 274.738 203.475 261.607 173.919 269.823C173.919 269.823 158.349 198.996 144.754 168.231C153.835 154.602 175.056 147.048 190.304 141.146C214.687 131.711 237.06 117.19 255.613 98.7674C279.412 124.943 329.107 183.221 329.107 183.221C307.253 202.012 298.462 235.939 275.886 266.406Z" fill="#151A4F"/>
<path d="M383.605 64.1165L233.157 204.233L42.9486 235.768L205.74 84.7261L383.605 64.1165Z" fill="#23286B"/>
<path d="M231.483 131.212L209.419 151.763L181.521 156.389L205.397 134.234L231.483 131.212Z" fill="#428DFC"/>
<path d="M33.7963 309.104C48.0091 300.33 59.6159 287.11 65.9646 271.797C68.5095 265.66 70.2813 259.171 71.9988 252.896C73.3389 247.994 74.7263 242.927 76.4655 238.087C85.5013 212.954 105.733 190.049 133.545 173.49C159.339 158.149 188.403 149.547 215.969 142.54C216.502 142.403 216.818 141.866 216.685 141.338C216.55 140.809 216.014 140.489 215.482 140.625C187.771 147.67 158.543 156.322 132.532 171.794C104.393 188.547 83.7928 211.856 74.6034 237.42C72.8386 242.332 71.4403 247.439 70.09 252.377C68.3898 258.592 66.6304 265.023 64.1329 271.044C55.3029 292.337 36.0362 309.492 13.8558 315.815C7.47988 317.634 2.99269 317.487 -0.270685 315.35C-2.3102 314.015 -3.60164 311.122 -3.33802 308.464C-3.22761 307.358 -2.74371 305.386 -0.709784 304.559C-0.214404 304.356 0.0410632 303.778 -0.1618 303.274C-0.36905 302.768 -0.945082 302.524 -1.44952 302.73C-3.64775 303.607 -5.04318 305.634 -5.30697 308.278C-5.64227 311.679 -4.01886 315.267 -1.35328 317.011C3.60918 320.257 10.0155 318.97 14.4016 317.721C21.1985 315.781 27.7357 312.846 33.7963 309.104Z" fill="#428DFC"/>
<path d="M30.3476 296.247C39.0587 290.869 47.0826 283.624 53.424 277.543C62.364 268.974 69.0931 258.581 73.9927 245.771C74.1901 245.262 73.9326 244.691 73.4228 244.494C72.9079 244.296 72.3389 244.555 72.1447 245.066C67.3513 257.596 60.7801 267.753 52.0566 276.115C44.2783 283.569 33.9545 292.789 23.0425 298.005C13.8508 302.394 6.86781 299.067 3.68071 294.882C1.41151 291.907 1.05926 288.565 2.79801 286.567C3.15849 286.155 3.11148 285.53 2.70129 285.173C2.28671 284.814 1.66819 284.857 1.305 285.273C-1.06499 288 -0.743391 292.346 2.10951 296.086C6.03089 301.235 14.2907 304.378 23.8984 299.789C26.0778 298.75 28.2326 297.552 30.3476 296.247Z" fill="#428DFC"/>
<path d="M44.0889 321.19C55.2335 314.31 64.4163 304.198 70.0281 292.381C77.7239 276.174 79.3664 260.464 74.9137 245.692C74.7556 245.169 74.2031 244.876 73.6819 245.032C73.154 245.195 72.8638 245.743 73.0194 246.263C77.3281 260.552 75.7212 275.784 68.2441 291.534C61.3126 306.122 48.7748 318.037 33.8491 324.223C33.3581 324.428 33.102 325.009 33.3131 325.513C33.5203 326.019 34.0998 326.255 34.6061 326.049C37.8863 324.691 41.0619 323.058 44.0889 321.19Z" fill="#428DFC"/>
<path d="M549.811 355.215L512.568 388.264L538.227 417.402L575.47 384.353L549.811 355.215Z" fill="url(#paint7_linear_23_4544)"/>
<path d="M512.568 388.264L544.021 386.31L549.812 355.214L512.568 388.264Z" fill="#EEEEEE"/>
<path d="M355.03 290.814L307.524 305.43L318.907 342.629L366.413 328.013L355.03 290.814Z" fill="url(#paint8_linear_23_4544)"/>
<path d="M307.524 305.435L336.975 316.733L355.039 290.814L307.524 305.435Z" fill="#EEEEEE"/>
<path d="M373.274 368.831L328.964 400.341L353.454 434.996L397.764 403.486L373.274 368.831Z" fill="url(#paint9_linear_23_4544)"/>
<path d="M328.963 400.343L363.368 401.918L373.277 368.83L328.963 400.343Z" fill="#EEEEEE"/>
<path d="M348.461 367.288C344.028 368.435 339.618 369.3 335.231 369.886C334.107 365.237 333.198 360.795 332.618 356.667C336.991 355.612 341.401 354.746 345.848 354.069C346.943 358.288 347.798 362.708 348.461 367.288Z" fill="#A1C3FC"/>
<path d="M561.7 332.072L554.013 324.397L561.7 316.722L569.388 324.397L561.7 332.072Z" fill="#A1C3FC"/>
<path d="M509.008 336.165L506.819 337.293H509.583L509.008 336.165Z" fill="#A1C3FC"/>
<path d="M499.165 341.239H511.593L510.535 339.162H503.194L499.165 341.239Z" fill="#A1C3FC"/>
<path d="M491.51 345.185H513.604L512.545 343.108H495.538L491.51 345.185Z" fill="#A1C3FC"/>
<path d="M492.545 349.131H515.614L514.556 347.054H491.487L492.545 349.131Z" fill="#A1C3FC"/>
<path d="M494.556 353.077H517.625L516.567 351H493.498L494.556 353.077Z" fill="#A1C3FC"/>
<path d="M496.567 357.023H513.156L517.185 354.946H495.509L496.567 357.023Z" fill="#A1C3FC"/>
<path d="M498.577 360.968H505.501L509.53 358.892H497.519L498.577 360.968Z" fill="#A1C3FC"/>
<path d="M500.018 363.795L501.876 362.837H499.53L500.018 363.795Z" fill="#A1C3FC"/>
<path d="M414.843 286.022L413.47 286.732H415.204L414.843 286.022Z" fill="#A1C3FC"/>
<path d="M408.667 289.217H416.465L415.801 287.909H411.195L408.667 289.217Z" fill="#A1C3FC"/>
<path d="M403.864 291.701H417.727L417.063 290.393H406.392L403.864 291.701Z" fill="#A1C3FC"/>
<path d="M404.514 294.185H418.989L418.325 292.878H403.85L404.514 294.185Z" fill="#A1C3FC"/>
<path d="M405.776 296.67H420.25L419.586 295.362H405.112L405.776 296.67Z" fill="#A1C3FC"/>
<path d="M407.037 299.154H417.446L419.974 297.847H406.373L407.037 299.154Z" fill="#A1C3FC"/>
<path d="M408.299 301.638H412.643L415.171 300.331H407.635L408.299 301.638Z" fill="#A1C3FC"/>
<path d="M409.203 303.418L410.368 302.815H408.896L409.203 303.418Z" fill="#A1C3FC"/>
<path d="M505.069 424.172L499.688 418.799L505.069 413.427L510.45 418.799L505.069 424.172Z" fill="#A1C3FC"/>
<path d="M380.01 304.222C376.905 305.086 373.814 305.751 370.735 306.22C369.884 302.963 369.188 299.849 368.728 296.952C371.791 296.153 374.882 295.488 378.002 294.954C378.826 297.909 379.485 301.008 380.01 304.222Z" fill="#E94A47"/>
<path d="M573.385 356.519C570.844 356.67 568.346 356.669 565.89 356.519C565.778 353.866 565.761 351.348 565.89 349.037C568.389 348.93 570.887 348.93 573.385 349.037C573.527 351.453 573.517 353.952 573.385 356.519Z" fill="#E94A47"/>
<path d="M315.798 399.024C313.765 400.249 311.701 401.331 309.608 402.27C308.361 400.126 307.252 398.052 306.353 396.086C308.37 394.916 310.433 393.834 312.542 392.84C313.711 394.775 314.79 396.846 315.798 399.024Z" fill="#E94A47"/>
<path d="M462.782 335.353C460.902 337.309 458.945 339.115 456.914 340.773C454.901 338.776 453.061 336.817 451.485 334.914C453.363 333.024 455.319 331.217 457.353 329.495C459.217 331.284 461.023 333.248 462.782 335.353Z" fill="#A1C3FC"/>
</g>
<defs>
<linearGradient id="paint0_linear_23_4544" x1="578.536" y1="316.847" x2="697.362" y2="316.847" gradientUnits="userSpaceOnUse">
<stop stop-color="#B9D3FD"/>
<stop offset="1" stop-color="#89B3F4"/>
</linearGradient>
<linearGradient id="paint1_linear_23_4544" x1="617.326" y1="344.526" x2="741.276" y2="344.526" gradientUnits="userSpaceOnUse">
<stop stop-color="#DEEAFE"/>
<stop offset="1" stop-color="#E9F1FE"/>
</linearGradient>
<linearGradient id="paint2_linear_23_4544" x1="187.191" y1="337.438" x2="642.817" y2="337.438" gradientUnits="userSpaceOnUse">
<stop stop-color="#EEEEEE"/>
<stop offset="1" stop-color="#D6D7D8"/>
</linearGradient>
<linearGradient id="paint3_linear_23_4544" x1="233.64" y1="420.495" x2="118.287" y2="452.249" gradientUnits="userSpaceOnUse">
<stop stop-color="#B9D3FD"/>
<stop offset="1" stop-color="#89B3F4"/>
</linearGradient>
<linearGradient id="paint4_linear_23_4544" x1="203.454" y1="457.74" x2="83.1143" y2="490.867" gradientUnits="userSpaceOnUse">
<stop stop-color="#DEEAFE"/>
<stop offset="1" stop-color="#E9F1FE"/>
</linearGradient>
<linearGradient id="paint5_linear_23_4544" x1="440.282" y1="170.966" x2="549.027" y2="208.616" gradientUnits="userSpaceOnUse">
<stop stop-color="#92C4FE"/>
<stop offset="1" stop-color="#5BABF2"/>
</linearGradient>
<linearGradient id="paint6_linear_23_4544" x1="482.78" y1="105.533" x2="556.165" y2="130.94" gradientUnits="userSpaceOnUse">
<stop stop-color="#FF4945"/>
<stop offset="1" stop-color="#F92424"/>
</linearGradient>
<linearGradient id="paint7_linear_23_4544" x1="561.103" y1="404.346" x2="527.11" y2="368.735" gradientUnits="userSpaceOnUse">
<stop offset="0.0898" stop-color="#EEEEEE"/>
<stop offset="0.8178" stop-color="#D6D7D8"/>
</linearGradient>
<linearGradient id="paint8_linear_23_4544" x1="345.109" y1="340.248" x2="328.891" y2="293.658" gradientUnits="userSpaceOnUse">
<stop offset="0.0898" stop-color="#EEEEEE"/>
<stop offset="0.8178" stop-color="#D6D7D8"/>
</linearGradient>
<linearGradient id="paint9_linear_23_4544" x1="379.829" y1="423.507" x2="347.068" y2="380.819" gradientUnits="userSpaceOnUse">
<stop offset="0.0898" stop-color="#EEEEEE"/>
<stop offset="0.8178" stop-color="#D6D7D8"/>
</linearGradient>
<clipPath id="clip0_23_4544">
<rect width="820" height="614" fill="white"/>
</clipPath>
</defs>
</svg>
