<svg width="24" height="24" viewBox="0 0 24 24" fill="none" xmlns="http://www.w3.org/2000/svg">
<path d="M19.6452 10.0047C19.3872 9.88994 16.9722 8.8149 16.7135 8.70016C15.499 8.15956 14.0767 8.70632 13.5369 9.91997L20.865 13.1813C21.4056 11.9669 20.8588 10.5445 19.6452 10.0047ZM21.4164 2.07743C21.0113 1.89723 20.5808 1.94343 20.4491 2.19063L16.9406 8.8011L19.3078 9.85381L21.9801 2.87138C22.0756 2.60802 21.8214 2.25763 21.4164 2.07743Z" stroke="#B2B7C1" stroke-width="1.4" stroke-linecap="round" stroke-linejoin="round"/>
<path d="M19.677 14.2178C18.173 18.7967 16.2262 21.167 16.2262 21.167C16.2262 21.167 9.52107 20.9237 5.17163 15.5546C6.06955 15.6186 11.6673 15.1373 13.5956 11.4185" stroke="#B2B7C1" stroke-width="1.4" stroke-linecap="round" stroke-linejoin="round"/>
<path d="M7.77075 18.0255C7.77075 18.0255 9.89463 17.7455 11.0344 16.555C10.1226 18.2268 9.03677 18.8611 9.03677 18.8611L7.77075 18.0255ZM10.7648 19.6996C10.7648 19.6996 12.4351 19.7185 15.2768 17.101C14.2549 19.4312 12.9223 20.5623 12.9223 20.5623L10.7648 19.6996Z" stroke="#B2B7C1" stroke-width="1.4" stroke-linecap="round" stroke-linejoin="round"/>
<path d="M3.20337 9.04437C3.27136 9.0162 3.34423 9.00171 3.41782 9.00171C3.49142 9.00171 3.56429 9.0162 3.63228 9.04437C3.70027 9.07253 3.76205 9.11381 3.81409 9.16585C3.86612 9.21788 3.9074 9.27966 3.93557 9.34765C3.96373 9.41564 3.97822 9.48852 3.97822 9.56211C3.97822 9.6357 3.96373 9.70858 3.93557 9.77657C3.9074 9.84456 3.86612 9.90634 3.81409 9.95837C3.76205 10.0104 3.70027 10.0517 3.63228 10.0799C3.56429 10.108 3.49142 10.1225 3.41782 10.1225C3.34423 10.1225 3.27136 10.108 3.20337 10.0799C3.13538 10.0517 3.0736 10.0104 3.02156 9.95837C2.96952 9.90634 2.92824 9.84456 2.90008 9.77657C2.87192 9.70858 2.85742 9.6357 2.85742 9.56211C2.85742 9.48852 2.87192 9.41564 2.90008 9.34765C2.92824 9.27966 2.96952 9.21788 3.02156 9.16585C3.0736 9.11381 3.13538 9.07253 3.20337 9.04437Z" fill="#B2B7C1"/>
<path d="M4.83485 9.48473C4.90491 9.41467 4.99994 9.37531 5.09903 9.37531C5.19811 9.37531 5.29314 9.41467 5.3632 9.48473C5.43327 9.5548 5.47263 9.64983 5.47263 9.74891C5.47263 9.848 5.43327 9.94302 5.3632 10.0131C5.29314 10.0831 5.19811 10.1225 5.09903 10.1225C4.99994 10.1225 4.90491 10.0831 4.83485 10.0131C4.76479 9.94302 4.72543 9.848 4.72543 9.74891C4.72543 9.64983 4.76479 9.5548 4.83485 9.48473Z" fill="#B2B7C1"/>
<path d="M4.25179 11.1433C4.42695 10.9681 4.66451 10.8697 4.91223 10.8697C5.15994 10.8697 5.39751 10.9681 5.57266 11.1433C5.74782 11.3184 5.84623 11.556 5.84623 11.8037C5.84623 12.0514 5.74782 12.289 5.57266 12.4642C5.39751 12.6393 5.15994 12.7377 4.91223 12.7377C4.66451 12.7377 4.42695 12.6393 4.25179 12.4642C4.07663 12.289 3.97822 12.0514 3.97822 11.8037C3.97822 11.556 4.07663 11.3184 4.25179 11.1433Z" fill="#B2B7C1"/>
</svg>
